<svg width="50" height="39" viewBox="0 0 50 39" fill="none" xmlns="http://www.w3.org/2000/svg">
<path d="M24.7449 18.6155C29.2485 18.6155 31.6054 11.6718 31.6054 7.94906C31.6054 3.56616 28.5271 0 24.7449 0C20.9613 0 17.8823 3.56616 17.8823 7.94906C17.8823 11.6711 20.2392 18.6155 24.7449 18.6155ZM24.7449 2.7828C27.0556 2.7828 28.9286 5.0953 28.9286 7.94906C28.9286 10.8014 27.0556 15.8327 24.7449 15.8327C22.4328 15.8327 20.5597 10.8014 20.5597 7.94906C20.5597 5.0953 22.4328 2.7828 24.7449 2.7828Z" fill="#222222"/>
<path d="M14.6434 20.7006C14.7765 20.7179 14.9258 20.7277 15.0857 20.7277C16.224 20.7277 17.9559 20.2268 19.1704 18.3331C19.5807 17.6937 19.414 16.8297 18.799 16.4039C18.1847 15.9781 17.3536 16.1514 16.9434 16.79C16.1377 18.0472 15.061 17.9518 14.9679 17.9386C14.8963 17.9261 14.8234 17.9205 14.7504 17.9205C13.7206 17.9205 11.9051 14.1672 11.9051 11.4283C11.9051 9.34674 13.1812 7.6534 14.7504 7.6534C15.4892 7.6534 16.0888 7.03006 16.0888 6.262C16.0888 5.49395 15.4892 4.87061 14.7504 4.87061C11.7056 4.87061 9.2283 7.81272 9.2283 11.4283C9.2283 14.6626 11.2814 20.5767 14.6434 20.7006Z" fill="#222222"/>
<path d="M30.5701 16.4031C29.9545 16.8289 29.7885 17.693 30.1987 18.3323C31.4126 20.2274 33.1445 20.7269 34.2834 20.7269C34.444 20.7269 34.5933 20.7172 34.7264 20.6998C38.0878 20.5759 40.1415 14.6618 40.1415 11.4268C40.1415 7.81125 37.6642 4.86914 34.6194 4.86914C33.8799 4.86914 33.281 5.49249 33.281 6.26054C33.281 7.02859 33.8799 7.65194 34.6194 7.65194C36.188 7.65194 37.4648 9.34527 37.4648 11.4268C37.4648 14.1665 35.6493 17.9191 34.6194 17.9191C34.5464 17.9191 34.4728 17.9253 34.4012 17.9372C34.3905 17.9413 33.2623 18.0916 32.4264 16.7886C32.0156 16.1499 31.1851 15.9753 30.5701 16.4031Z" fill="#222222"/>
<path d="M35.0047 25.0051L40.7802 23.1528L47 35.6555H39.8917" stroke="#222222" stroke-width="3"/>
<path d="M12.3382 36.5819L18.558 22.2271H19.0022L25.6663 24.5424L31.4418 22.2271L37.6616 36.5819H12.3382Z" fill="#F3C323"/>
<path d="M24.3867 25.3769L24.9571 25.6113L25.5274 25.3769L30.7241 23.2404L37.1292 37.5H13.2522L19.2244 23.2545L24.3867 25.3769Z" stroke="#222222" stroke-width="3"/>
<path d="M14.9953 25.0051L9.21974 23.1528L2.99994 35.6555H10.1083" stroke="#222222" stroke-width="3"/>
<path d="M14.5596 33.3403L35.8846 33.3403" stroke="#222222" stroke-width="1.5"/>
</svg>
