<svg width="33" height="32" viewBox="0 0 33 32" fill="none" xmlns="http://www.w3.org/2000/svg">
<path d="M14.676 1.71216L14.068 4.14416L10.116 5.96816L7.68401 4.75216L5.25201 7.18416L6.46801 9.61616L4.64401 13.2642L2.21201 14.4802V17.8242L4.64401 18.7362L6.46801 22.9922L5.25201 24.8162L7.98801 27.2482L10.116 26.0322L14.068 27.8562L14.676 30.2882H18.324L18.628 27.8562L23.492 26.0322L25.316 27.2482L27.748 24.8162L26.532 22.9922L28.356 18.7362L30.788 17.5202V14.4802L28.356 13.8722L26.532 9.61616L27.748 7.18416L25.316 4.75216L22.884 5.96816L18.932 4.14416L18.628 1.71216H14.676Z" fill="#F3C323"/>
<path d="M25.3 4.8001L22.9 6.0001L18.9 4.0001L18.5 1.6001H14.5L14.1 4.0001L10.1 6.0001L7.7 4.8001L5.3 7.2001L6.5 9.6001L4.5 13.2001L2.1 14.4001V17.6001L4.5 18.8001L6.5 22.8001L5.3 24.8001L7.7 27.2001L10.1 26.0001L14.1 28.0001L14.5 30.4001H18.1L18.5 28.0001L23.3 26.0001L25.3 27.2001L27.7 24.8001L26.5 22.8001L28.1 19.2001L30.9 17.6001V14.8001L28.5 14.0001L26.5 10.0001L27.7 7.6001L25.3 4.8001Z" stroke="#222222" stroke-width="1.8"/>
<circle cx="16.5" cy="16" r="7.708" fill="white" stroke="#222222"/>
</svg>
