<svg width="32" height="32" viewBox="0 0 32 32" fill="none" xmlns="http://www.w3.org/2000/svg">
<path d="M3.93842 5.94557L15.7538 1.57153L28.0615 5.45956V16.3947L24.123 23.6847L15.7538 30.2458L8.36918 23.6847L3.93842 16.3947V5.94557Z" fill="#F3C323"/>
<path fill-rule="evenodd" clip-rule="evenodd" d="M15.7347 0.800049L28.8 4.92742V16.5769L24.7025 24.1614L15.724 31.2001L7.79297 24.1535L3.20001 16.5966V5.44036L15.7347 0.800049ZM15.773 2.34301L4.67694 6.45077V16.1927L8.94552 23.2159L15.7837 29.2915L23.5437 23.208L27.3231 16.2124V5.9917L15.773 2.34301Z" fill="#222222"/>
<path d="M7.38467 8.64733L15.8242 5.45947L24.6154 8.29312V16.2628L21.8023 21.5759L15.8242 26.3576L10.5495 21.5759L7.38467 16.2628V8.64733Z" fill="white"/>
<path fill-rule="evenodd" clip-rule="evenodd" d="M15.8047 4.68628L25.3539 7.76425V16.4418L22.3859 22.0473L15.794 27.32L9.9688 22.0392L6.64618 16.4612V8.1457L15.8047 4.68628ZM15.8437 6.23263L8.1231 9.14892V16.0643L11.1302 21.1125L15.8544 25.3952L21.2186 21.1044L23.8769 16.0837V8.82196L15.8437 6.23263Z" fill="#222222"/>
<path d="M15.0114 17.9789L21.0781 10.8057L21.8831 11.4686C20.7687 12.7863 15.0372 19.2734 15.0372 19.2734C15.0372 19.2734 11.2084 15.537 10.3385 14.6352L11.098 13.922L15.0114 17.9789Z" fill="#222222"/>
<path fill-rule="evenodd" clip-rule="evenodd" d="M15.3613 18.9063C15.1554 19.1395 15.0372 19.2734 15.0372 19.2734C15.0372 19.2734 14.9059 19.1453 14.6865 18.9308C13.8393 18.1028 11.6776 15.9869 10.6813 14.984C10.542 14.8438 10.4254 14.7253 10.3385 14.6352L11.098 13.922L15.0114 17.9789L21.0781 10.8057L21.8831 11.4686C21.8831 11.4686 21.883 11.4686 21.8831 11.4686C21.8009 11.5658 21.6935 11.6911 21.5653 11.8398C20.2043 13.4181 16.4829 17.636 15.3613 18.9063ZM18.7054 14.3694C19.7011 13.2358 20.6377 12.1657 21.1872 11.5285L21.1406 11.4901L18.7054 14.3694ZM12.8956 16.4902L11.0808 14.6089L11.038 14.649C11.4916 15.1055 12.1892 15.7952 12.8956 16.4902Z" fill="#222222"/>
</svg>
