<svg width="32" height="32" viewBox="0 0 32 32" fill="none" xmlns="http://www.w3.org/2000/svg">
<path d="M21.1601 13.8605V8.41187H25.9601L28.6001 13.8605H21.1601Z" fill="#F3C323"/>
<path fill-rule="evenodd" clip-rule="evenodd" d="M10.84 12.0355H2.44V11.0125H10.84V12.0355Z" fill="#222222"/>
<path fill-rule="evenodd" clip-rule="evenodd" d="M9.40001 15.0075H1V13.9844H9.40001V15.0075Z" fill="#222222"/>
<path fill-rule="evenodd" clip-rule="evenodd" d="M8.20005 17.9794L2.92004 17.9794L2.92004 16.9563L8.20005 16.9563L8.20005 17.9794Z" fill="#222222"/>
<path fill-rule="evenodd" clip-rule="evenodd" d="M20.4401 7.66895H26.4051L29.7651 14.6036H20.4401V7.66895ZM21.8801 9.15495V13.1176H27.4351L25.5151 9.15495H21.8801Z" fill="#222222"/>
<path fill-rule="evenodd" clip-rule="evenodd" d="M20.44 7.1735H5.31995V5.6875H21.88V13.1175H28.9749L31 16.103V22.7765H5.31995V21.2905H29.56V16.5714L28.2251 14.6035H20.44V7.1735Z" fill="#222222"/>
<path d="M14.3606 23.0528C14.3606 24.6091 13.1324 25.8374 11.6579 25.8374C10.1835 25.8374 8.95529 24.6091 8.95529 23.0528C8.95529 21.4965 10.1835 20.2682 11.6579 20.2682C13.1324 20.2682 14.3606 21.4965 14.3606 23.0528Z" fill="#F3C323" stroke="#222222" stroke-width="1.7"/>
<path d="M26.2027 23.0528C26.2027 24.6091 24.9745 25.8374 23.5 25.8374C22.0256 25.8374 20.7974 24.6091 20.7974 23.0528C20.7974 21.4965 22.0256 20.2682 23.5 20.2682C24.9745 20.2682 26.2027 21.4965 26.2027 23.0528Z" fill="#F3C323" stroke="#222222" stroke-width="1.7"/>
</svg>
