<svg width="52" height="56" viewBox="0 0 52 56" fill="none" xmlns="http://www.w3.org/2000/svg">
<path d="M15.5 20L12 13L6 20.5H15.5V20Z" fill="#F3C323"/>
<path d="M15.5 20.5L12 12.5L39.5 12L35.5 20.5H15.5Z" fill="#F3C323" stroke="#222222"/>
<path d="M36 20.4L40.0526 12L47 21H36V20.4Z" fill="#F3C323"/>
<path d="M40 10H12C12 10 3.81056 19.1944 2.00049 21.3946C2.00049 21.3946 21.1781 41.9944 25.9996 47C25.8805 47 49.9985 21.3627 49.9985 21.3627C48.1868 19.1638 40 10 40 10ZM34.5277 21.7193L25.982 42.1043L16.9662 21.7193H34.5277ZM16.3187 20.2544L13.0795 12.9298H38.2127L35.1415 20.2544H16.3187ZM24.0232 41.1799L5.94985 21.7193H15.3946L24.0232 41.1799ZM36.1022 21.7193H45.8542C45.9232 21.7193 45.9855 21.698 46.0486 21.6797L27.8593 41.3015L36.1022 21.7193ZM45.7596 20.2544H36.7189L39.631 13.3349L45.7596 20.2544ZM11.9105 13.8586L14.7464 20.2544H6.27326L11.9105 13.8586Z" fill="#222222"/>
</svg>
